<svg xmlns="http://www.w3.org/2000/svg" width="236.429" height="244.722" viewBox="0 0 236.429 244.722"><defs><style>.a{fill:#2e1766;}.b,.c,.d,.e,.f,.g,.h,.i{fill:none;stroke:#af0b7d;stroke-miterlimit:10;opacity:0.76;}.b,.d,.f{stroke-linejoin:round;}.b{stroke-width:0.177px;}.c,.e,.h,.i{stroke-linecap:round;}.c{stroke-width:0.354px;}.d{stroke-width:0.184px;}.e{stroke-width:0.369px;}.f{stroke-width:0.264px;}.g{stroke-width:0.5px;}.h{stroke-width:0.528px;}.i{stroke-width:0.394px;}</style></defs><g transform="translate(0.003 0.113)"><circle class="a" cx="7.78" cy="7.78" r="7.78" transform="translate(17.43 76.15)"/><path class="a" d="M21.58,75.3l-2.43-.69,1.45-2Z"/><path class="a" d="M16.41,93.71l1.32-2.02,1.41,1.89Z"/><path class="a" d="M27.93,76.83l1.41-2.14,1.49,2.01Z"/><path class="b" d="M17.97,96.22l.52-3.17,2.36.08Z"/><line class="c" x1="7.17" y2="7.27" transform="translate(26.55 74.66)"/><line class="c" x1="14.67" y2="14.88" transform="translate(28.5 66.91)"/><line class="c" x1="5.82" y2="5.91" transform="translate(15.97 81.81)"/><line class="c" x1="4.77" y2="4.84" transform="translate(18.39 82.25)"/><path class="b" d="M33.16,81.58l-3.15,4.06-3.25-1.91Z"/><path class="b" d="M19.73,79.92l-.86-2.64,2.36-.72Z"/><path class="b" d="M26.63,74.64l2.39,1.77-1.06,1.91Z"/><path class="b" d="M22.16,95.98l-2.51-4.33,2.92-2.24Z"/><circle class="a" cx="8.11" cy="8.11" r="8.11" transform="translate(23.88 201.36)"/><path class="a" d="M36.24,218.26l2.57.58L37.41,221Z"/><path class="a" d="M40.61,198.81l-1.27,2.17-1.57-1.89Z"/><path class="a" d="M29.55,217.01l-1.35,2.32-1.66-2.02Z"/><path class="d" d="M38.84,196.27l-.36,3.34-2.46.05Z"/><line class="e" y1="7.97" x2="7.06" transform="translate(23.64 211.63)"/><line class="e" y1="16.3" x2="14.44" transform="translate(13.2 211.89)"/><line class="e" y1="6.47" x2="5.74" transform="translate(35.66 205.02)"/><line class="e" y1="5.3" x2="4.7" transform="translate(34.21 205.81)"/><path class="d" d="M23.84,212.36l3.05-4.4,3.49,1.81Z"/><path class="d" d="M37.91,213.34l1.05,2.7-2.42.88Z"/><path class="d" d="M31.03,219.22l-2.59-1.71,1-2.04Z"/><path class="d" d="M34.49,196.76l2.85,4.37-2.91,2.49Z"/><circle class="a" cx="7.78" cy="7.78" r="7.78" transform="translate(82.2 151.97)"/><path class="a" d="M93.6,168.39l2.43.68-1.45,2Z"/><path class="a" d="M98.78,149.98,97.45,152l-1.4-1.9Z"/><path class="a" d="M87.26,166.85,85.85,169l-1.5-2.02Z"/><path class="b" d="M97.22,147.46l-.52,3.17-2.36-.08Z"/><line class="c" y1="7.27" x2="7.17" transform="translate(81.46 161.75)"/><line class="c" y1="14.87" x2="14.67" transform="translate(72.02 161.9)"/><line class="c" y1="5.9" x2="5.83" transform="translate(93.39 155.97)"/><line class="c" y1="4.85" x2="4.78" transform="translate(92.02 156.59)"/><path class="b" d="M82.03,162.1l3.15-4.06,3.24,1.91Z"/><path class="b" d="M95.45,163.76l.87,2.64-2.37.72Z"/><path class="b" d="M88.56,169.04l-2.39-1.77,1.06-1.91Z"/><path class="b" d="M93.03,147.7l2.5,4.34-2.92,2.23Z"/><circle class="a" cx="7.78" cy="7.78" r="7.78" transform="translate(87.61 26.32)"/><path class="a" d="M91.31,25.67l-2.47-.56,1.34-2.07Z"/><path class="a" d="M87.12,44.33l1.22-2.09,1.5,1.82Z"/><path class="a" d="M97.73,26.86l1.29-2.22,1.6,1.94Z"/><path class="b" d="M88.82,46.76l.34-3.2,2.36-.04Z"/><line class="c" x1="6.78" y2="7.64" transform="translate(96.62 24.39)"/><line class="c" x1="13.86" y2="15.64" transform="translate(98.56 16.14)"/><line class="c" x1="5.5" y2="6.21" transform="translate(86.36 32.16)"/><line class="c" x1="4.52" y2="5.09" transform="translate(88.74 32.53)"/><path class="b" d="M103.2,31.33l-2.92,4.22-3.35-1.74Z"/><path class="b" d="M89.71,30.39,88.7,27.8l2.32-.85Z"/><path class="b" d="M96.31,24.75l2.48,1.64-.96,1.96Z"/><path class="b" d="M92.99,46.29,90.25,42.1l2.8-2.39Z"/><circle class="a" cx="11.6" cy="11.6" r="11.6" transform="translate(18.59 14.04)"/><rect class="a" width="20.5" height="3.75" transform="translate(16.064 49.627) rotate(-141.598)"/><path class="a" d="M24.78,12.77l-3.63-1.03,2.17-2.98Z"/><path class="a" d="M17.06,40.22l1.97-3.02,2.1,2.83Z"/><path class="a" d="M34.24,15.06l2.1-3.2,2.23,3Z"/><path class="f" d="M19.39,43.97l.77-4.74,3.52.12Z"/><rect class="g" width="20.5" height="3.75" transform="translate(16.533 51.416) rotate(-141.598)"/><line class="h" x1="10.69" y2="10.84" transform="translate(32.19 11.82)"/><line class="h" x1="21.87" y2="22.18" transform="translate(35.09 0.26)"/><line class="h" x1="8.68" y2="8.8" transform="translate(16.41 22.48)"/><line class="h" x1="7.12" y2="7.22" transform="translate(20.01 23.13)"/><path class="f" d="M42.03,22.14l-4.69,6.05L32.5,25.34Z"/><path class="f" d="M22.02,19.66l-1.29-3.93,3.52-1.08Z"/><path class="f" d="M32.3,11.79l3.57,2.64-1.59,2.84Z"/><path class="f" d="M25.64,43.61,21.9,37.14l4.35-3.33Z"/><rect class="a" width="20.5" height="3.75" transform="translate(45.66 47.268) rotate(-51.598)"/><rect class="a" width="20.5" height="3.75" transform="translate(124.105 109.456) rotate(128.402)"/><rect class="g" width="20.5" height="3.75" transform="translate(125.895 108.987) rotate(128.402)"/><rect class="g" width="20.5" height="3.75" transform="translate(43.863 47.732) rotate(-51.598)"/><circle class="a" cx="11.6" cy="11.6" r="11.6" transform="translate(18.59 135.68)"/><rect class="a" width="20.5" height="3.75" transform="translate(16.063 171.253) rotate(-141.598)"/><path class="a" d="M24.78,134.4l-3.63-1.03,2.17-2.98Z"/><path class="a" d="M17.06,161.85l1.97-3.02,2.1,2.83Z"/><path class="a" d="M34.24,136.69l2.1-3.2,2.23,3Z"/><path class="f" d="M19.39,165.6l.77-4.74,3.52.12Z"/><rect class="g" width="20.5" height="3.75" transform="translate(16.532 173.042) rotate(-141.598)"/><line class="h" x1="10.69" y2="10.84" transform="translate(32.19 133.45)"/><line class="h" x1="21.87" y2="22.17" transform="translate(35.09 121.9)"/><line class="h" x1="8.68" y2="8.8" transform="translate(16.41 144.11)"/><line class="h" x1="7.12" y2="7.22" transform="translate(20.01 144.76)"/><path class="f" d="M42.03,143.77l-4.69,6.05-4.84-2.85Z"/><path class="f" d="M22.02,141.29l-1.29-3.93,3.52-1.08Z"/><path class="f" d="M32.3,133.42l3.57,2.64-1.59,2.84Z"/><path class="f" d="M25.64,165.24l-3.74-6.47,4.35-3.32Z"/><circle class="a" cx="11.6" cy="11.6" r="11.6" transform="translate(79.52 193.36)"/><rect class="a" width="20.5" height="3.75" transform="translate(45.664 168.899) rotate(-51.598)"/><rect class="a" width="20.5" height="3.75" transform="translate(115.093 226.081) rotate(128.402)"/><path class="a" d="M78.24,210.37l-1.02,3.62-2.98-2.16Z"/><path class="a" d="M105.69,218.09l-3.01-1.98,2.83-2.1Z"/><path class="a" d="M80.53,200.91l-3.2-2.1,3.01-2.23Z"/><path class="f" d="M109.44,215.76l-4.73-.77.12-3.52Z"/><rect class="g" width="20.5" height="3.75" transform="translate(116.883 225.613) rotate(128.402)"/><rect class="g" width="20.5" height="3.75" transform="translate(43.875 169.369) rotate(-51.598)"/><line class="h" x2="10.84" y2="10.69" transform="translate(77.3 192.27)"/><line class="h" x2="22.18" y2="21.88" transform="translate(65.74 178.18)"/><line class="h" x2="8.81" y2="8.68" transform="translate(87.95 210.06)"/><line class="h" x2="7.23" y2="7.13" transform="translate(88.6 208.01)"/><path class="f" d="M87.62,193.11l6.04,4.7-2.84,4.84Z"/><path class="f" d="M85.14,213.13l-3.94,1.28-1.07-3.52Z"/><path class="f" d="M77.27,202.85l2.64-3.57,2.84,1.59Z"/><path class="f" d="M109.08,209.51l-6.46,3.74-3.33-4.36Z"/><circle class="a" cx="7.78" cy="7.78" r="7.78" transform="translate(145.61 76.15)"/><path class="a" d="M149.76,75.3l-2.43-.69,1.45-2Z"/><path class="a" d="M144.59,93.71l1.32-2.02,1.41,1.89Z"/><path class="a" d="M156.11,76.83l1.41-2.14,1.49,2.01Z"/><path class="b" d="M146.15,96.22l.52-3.17,2.36.08Z"/><line class="c" x1="7.17" y2="7.27" transform="translate(154.73 74.66)"/><line class="c" x1="14.67" y2="14.88" transform="translate(156.68 66.91)"/><line class="c" x1="5.82" y2="5.91" transform="translate(144.15 81.81)"/><line class="c" x1="4.77" y2="4.84" transform="translate(146.57 82.25)"/><path class="b" d="M161.34,81.58l-3.15,4.06-3.25-1.91Z"/><path class="b" d="M147.91,79.92l-.86-2.64,2.36-.72Z"/><path class="b" d="M154.81,74.64l2.39,1.77-1.06,1.91Z"/><path class="b" d="M150.34,95.98l-2.51-4.33,2.92-2.24Z"/><circle class="a" cx="7.78" cy="7.78" r="7.78" transform="translate(140.19 201.8)"/><path class="a" d="M152.06,218.01l2.46.56-1.34,2.07Z"/><path class="a" d="M156.24,199.35l-1.21,2.09-1.51-1.82Z"/><path class="a" d="M145.64,216.82l-1.29,2.22-1.6-1.93Z"/><path class="b" d="M154.55,196.92l-.35,3.2-2.36.05Z"/><line class="c" y1="7.65" x2="6.77" transform="translate(139.97 211.65)"/><line class="c" y1="15.64" x2="13.86" transform="translate(130.95 211.9)"/><line class="c" y1="6.21" x2="5.5" transform="translate(151.5 205.31)"/><line class="c" y1="5.09" x2="4.51" transform="translate(150.11 206.07)"/><path class="b" d="M140.16,212.35l2.93-4.21,3.35,1.73Z"/><path class="b" d="M153.66,213.3l1,2.59-2.32.84Z"/><path class="b" d="M147.06,218.94l-2.49-1.64.96-1.96Z"/><path class="b" d="M150.38,197.39l2.73,4.2-2.79,2.38Z"/><circle class="a" cx="7.78" cy="7.78" r="7.78" transform="translate(201.38 151.97)"/><path class="a" d="M212.78,168.39l2.43.68-1.45,2Z"/><path class="a" d="M217.96,149.98,216.63,152l-1.4-1.9Z"/><path class="a" d="M206.44,166.85,205.03,169l-1.5-2.02Z"/><path class="b" d="M216.4,147.46l-.52,3.17-2.36-.08Z"/><line class="c" y1="7.27" x2="7.17" transform="translate(200.64 161.75)"/><line class="c" y1="14.87" x2="14.67" transform="translate(191.2 161.9)"/><line class="c" y1="5.9" x2="5.83" transform="translate(212.57 155.97)"/><line class="c" y1="4.85" x2="4.78" transform="translate(211.2 156.59)"/><path class="b" d="M201.21,162.1l3.15-4.06,3.24,1.91Z"/><path class="b" d="M214.63,163.76l.87,2.64-2.37.72Z"/><path class="b" d="M207.74,169.04l-2.39-1.77,1.06-1.91Z"/><path class="b" d="M212.21,147.7l2.5,4.34-2.92,2.23Z"/><circle class="a" cx="7.78" cy="7.78" r="7.78" transform="translate(206.79 26.32)"/><path class="a" d="M210.49,25.67l-2.47-.56,1.34-2.07Z"/><path class="a" d="M206.3,44.33l1.22-2.09,1.5,1.82Z"/><path class="a" d="M216.91,26.86l1.29-2.22,1.6,1.94Z"/><path class="b" d="M208,46.76l.34-3.2,2.36-.04Z"/><line class="c" x1="6.78" y2="7.64" transform="translate(215.8 24.39)"/><line class="c" x1="13.86" y2="15.64" transform="translate(217.74 16.14)"/><line class="c" x1="5.5" y2="6.21" transform="translate(205.54 32.16)"/><line class="c" x1="4.52" y2="5.09" transform="translate(207.92 32.53)"/><path class="b" d="M222.38,31.33l-2.93,4.22-3.34-1.74Z"/><path class="b" d="M208.89,30.39l-1.01-2.59,2.32-.85Z"/><path class="b" d="M215.49,24.75l2.48,1.64-.96,1.96Z"/><path class="b" d="M212.17,46.29l-2.74-4.19,2.8-2.39Z"/><circle class="a" cx="11.6" cy="11.6" r="11.6" transform="translate(137.77 14.04)"/><path class="a" d="M143.96,12.77l-3.63-1.03,2.17-2.98Z"/><path class="a" d="M136.24,40.22l1.97-3.02,2.1,2.83Z"/><path class="a" d="M153.42,15.06l2.1-3.2,2.23,3Z"/><path class="f" d="M138.57,43.97l.77-4.74,3.52.12Z"/><line class="h" x1="10.69" y2="10.84" transform="translate(151.37 11.82)"/><line class="h" x1="21.87" y2="22.18" transform="translate(154.27 0.26)"/><line class="h" x1="8.68" y2="8.8" transform="translate(135.59 22.48)"/><line class="h" x1="7.12" y2="7.22" transform="translate(139.19 23.13)"/><path class="f" d="M161.21,22.14l-4.69,6.05-4.84-2.85Z"/><path class="f" d="M141.2,19.66l-1.29-3.93,3.52-1.08Z"/><path class="f" d="M151.48,11.79l3.57,2.64-1.59,2.84Z"/><path class="f" d="M144.81,43.61l-3.73-6.47,4.35-3.33Z"/><circle class="a" cx="11.6" cy="11.6" r="11.6" transform="translate(198.7 71.73)"/><rect class="a" width="20.5" height="3.75" transform="translate(164.84 47.262) rotate(-51.598)"/><rect class="a" width="20.5" height="3.75" transform="translate(234.285 104.461) rotate(128.402)"/><path class="a" d="M197.42,88.74l-1.02,3.62-2.98-2.16Z"/><path class="a" d="M224.87,96.46l-3.01-1.98,2.83-2.1Z"/><path class="a" d="M199.71,79.28l-3.2-2.1,3.01-2.23Z"/><path class="f" d="M228.62,94.13l-4.73-.78.12-3.51Z"/><rect class="g" width="20.5" height="3.75" transform="translate(236.075 103.993) rotate(128.402)"/><rect class="g" width="20.5" height="3.75" transform="translate(163.043 47.726) rotate(-51.598)"/><line class="h" x2="10.84" y2="10.69" transform="translate(196.48 70.64)"/><line class="h" x2="22.18" y2="21.88" transform="translate(184.92 56.55)"/><line class="h" x2="8.81" y2="8.68" transform="translate(207.13 88.43)"/><line class="h" x2="7.23" y2="7.13" transform="translate(207.78 86.38)"/><path class="f" d="M206.8,71.48l6.04,4.69L210,81.02Z"/><path class="f" d="M204.32,91.5l-3.94,1.28-1.07-3.52Z"/><path class="f" d="M196.45,81.22l2.64-3.57,2.84,1.58Z"/><path class="f" d="M228.26,87.88l-6.46,3.74-3.33-4.36Z"/><circle class="a" cx="11.6" cy="11.6" r="11.6" transform="translate(137.77 135.68)"/><rect class="a" width="20.5" height="3.75" transform="translate(185.431 101.809) rotate(38.402)"/><rect class="a" width="20.5" height="3.75" transform="translate(128.238 171.253) rotate(-141.598)"/><path class="a" d="M143.96,134.4l-3.63-1.03,2.17-2.98Z"/><path class="a" d="M136.24,161.85l1.97-3.02,2.1,2.83Z"/><path class="a" d="M153.42,136.69l2.1-3.2,2.23,3Z"/><path class="f" d="M138.57,165.6l.77-4.74,3.52.12Z"/><rect class="g" width="20.5" height="3.75" transform="translate(128.707 173.042) rotate(-141.598)"/><rect class="g" width="20.5" height="3.75" transform="translate(184.97 100.025) rotate(38.402)"/><line class="h" x1="10.69" y2="10.84" transform="translate(151.37 133.45)"/><line class="h" x1="21.87" y2="22.17" transform="translate(154.27 121.9)"/><line class="h" x1="8.68" y2="8.8" transform="translate(135.59 144.11)"/><line class="h" x1="7.12" y2="7.22" transform="translate(139.19 144.76)"/><path class="f" d="M161.21,143.77l-4.69,6.05-4.84-2.85Z"/><path class="f" d="M141.2,141.29l-1.29-3.93,3.52-1.08Z"/><path class="f" d="M151.48,133.42l3.57,2.64-1.59,2.84Z"/><path class="f" d="M144.81,165.24l-3.73-6.47,4.35-3.32Z"/><rect class="a" width="20.5" height="3.75" transform="translate(164.845 168.893) rotate(-51.598)"/><rect class="a" width="20.5" height="3.75" transform="translate(234.273 226.087) rotate(128.402)"/><rect class="g" width="20.5" height="3.75" transform="translate(236.063 225.618) rotate(128.402)"/><rect class="g" width="20.5" height="3.75" transform="translate(163.055 169.363) rotate(-51.598)"/><rect class="a" width="20.5" height="3.75" transform="translate(66.246 228.935) rotate(38.402)"/><rect class="g" width="20.5" height="3.75" transform="translate(65.784 227.151) rotate(38.402)"/><circle class="a" cx="8.67" cy="8.67" r="8.67" transform="translate(84.29 66.67)"/><path class="a" d="M112.72,77.84h.03a.335.335,0,0,0,.24-.02l2.11-1.1a.317.317,0,0,0,.14-.43l-8.58-16.5a1.512,1.512,0,0,0-2.68,1.4l7.07,13.6-6.98-.34,2.88-6.56a.179.179,0,0,0-.07-.23.174.174,0,0,0-.14-.03.207.207,0,0,0-.1.06l-6.4,7.22a.161.161,0,0,0-.04.16.163.163,0,0,0,.11.13Z"/><path class="a" d="M78.85,87.97A1.5,1.5,0,0,0,80,86.17L77.68,75.59,83,81.42a.3.3,0,0,0,.33.08.41.41,0,0,0,.22,0l2.25-.49a.5.5,0,0,0,.34-.26.516.516,0,0,0,.03-.42l-4.92-12.7v-.01a.284.284,0,0,0-.33-.16c-.01,0-.02.01-.03.01a.294.294,0,0,0-.2.33l1.54,9.1L76.4,69.71a.294.294,0,0,0-.34-.07h-.01l-2.33.51a.319.319,0,0,0-.24.38l3.57,16.29A1.516,1.516,0,0,0,78.85,87.97Z"/><path class="a" d="M62.02,84.24a.339.339,0,0,0,.47.1l7.5-4.03a.338.338,0,0,0,.17-.45l-.67-1.25a.323.323,0,0,0-.42-.12l-2.96,1.19-.42-1.57,4.72-1.62,2.64,5.3-7.62,5.45a.188.188,0,0,0-.06.24.191.191,0,0,0,.23.09l10.12-3.62a.213.213,0,0,0,.11-.1.225.225,0,0,0,.01-.14l-.58-1.61v-.01L72.89,75.3h0l-.77-2.26a.321.321,0,0,0-.4-.2l-6.81,2.33-1.18-4.4a1.511,1.511,0,1,0-2.92.78l2.49,9.26-2.17.87a.349.349,0,0,0-.21.47Z"/><rect class="a" width="15.32" height="2.8" transform="matrix(-0.899, -0.439, 0.439, -0.899, 73.909, 114.314)"/><rect class="a" width="15.32" height="2.8" transform="matrix(0.899, 0.439, -0.439, 0.899, 104.527, 54.447)"/><path class="a" d="M98.96,83.87l2.82.17-1.11,2.52Z"/><path class="a" d="M100.21,62.6l-.96,2.51-1.99-1.72Z"/><path class="a" d="M91.69,83.72l-1.02,2.67-2.11-1.84Z"/><path class="i" d="M97.91,60.23l.19,3.58-2.59.48Z"/><rect class="i" width="15.32" height="2.8" transform="matrix(0.899, 0.439, -0.439, 0.899, 103.896, 53.216)"/><rect class="i" width="15.32" height="2.8" transform="matrix(-0.899, -0.439, 0.439, -0.899, 74.541, 115.537)"/><line class="i" y1="9.62" x2="6.07" transform="translate(85.9 77.84)"/><line class="i" y1="19.69" x2="12.42" transform="translate(77.47 78.46)"/><line class="i" y1="7.81" x2="4.93" transform="translate(97.18 69.02)"/><line class="i" y1="6.41" x2="4.04" transform="translate(95.59 70.28)"/><path class="i" d="M84.87,79.79l2.46-5.16,3.99,1.3Z"/><path class="i" d="M99.88,78.4l1.57,2.67-2.4,1.34Z"/><path class="i" d="M93.63,85.79l-3.02-1.36.7-2.32Z"/><path class="i" d="M93.4,61.5l3.77,4.12-2.65,3.12Z"/><path class="a" d="M74.86,90.67l6.48,2.3,2.31,5.24-7,4.53a.161.161,0,0,0-.06.21.159.159,0,0,0,.2.09l9.14-2.79a.165.165,0,0,0,.11-.21l-.45-1.46v-.01l-2.27-7.62c0-.01-.01-.02-.02-.03s-.02-.03-.02-.05-.01-.02-.02-.02a.273.273,0,0,0-.12-.09l-7.39-2.62a1.348,1.348,0,0,0-1.72.82A1.364,1.364,0,0,0,74.86,90.67Z"/><path class="a" d="M90.68,110.61a1.353,1.353,0,0,0,1.03-1.6L88.05,92.3l4.73,5.19a.4.4,0,0,0,.3.11l2.19-.48a.439.439,0,0,0,.3-.23.458.458,0,0,0,.02-.38l-4.38-11.3V85.2a.268.268,0,0,0-.29-.15.037.037,0,0,0-.03.01.25.25,0,0,0-.17.3l1.37,8.09-5.18-6.4a.277.277,0,0,0-.31-.07h-.01l-2.08.46a.275.275,0,0,0-.21.34l4.78,21.79A1.327,1.327,0,0,0,90.68,110.61Z"/><path class="a" d="M67.7,100.32a.27.27,0,0,0,.34.14l5.29-1.75.48,2.2-4.73,4.67a1.344,1.344,0,1,0,1.89,1.91l5.63-5.56a.382.382,0,0,0,.09-.09h0a.3.3,0,0,0,.04-.21l-2-9.12a.3.3,0,0,0-.24-.22h-.01L66.8,89.56a.277.277,0,0,0-.09-.01.155.155,0,0,0-.11.08.169.169,0,0,0,.04.21l5.73,4.44.41,1.89L67.3,98.79a.273.273,0,0,0-.13.37Z"/><path class="a" d="M100.15,102.24h0c.02.01.03.03.05.03l2.77.26a.159.159,0,0,0,.12-.04.138.138,0,0,0,.06-.11l1.11-11.31,9.64,6.23a1.348,1.348,0,0,0,1.56-2.2l-8.74-5.59,4.88-7.19,6.85,16.33a.167.167,0,0,0,.21.09.161.161,0,0,0,.1-.2L113.3,78.85a.423.423,0,0,0-.22-.27.508.508,0,0,0-.32-.05.037.037,0,0,0-.03.01,17.142,17.142,0,0,0-2.15.56l-6.02,8.78.6-6.06a.261.261,0,0,0-.21-.28.17.17,0,0,0-.1,0,.247.247,0,0,0-.19.19l-1.76,7.9-5.42,1.79-2.85-5.39a1.346,1.346,0,0,0-2.38,1.26Zm2.27-10.35-1.39,6.24-2.35-4.45Z"/><circle class="a" cx="8.67" cy="8.67" r="8.67" transform="translate(189.38 211.03)"/><path class="a" d="M178.2,221.38c-.01,0-.02.01-.03.01a.331.331,0,0,0-.23.07l-1.84,1.52a.309.309,0,0,0-.04.45l11.83,14.35a1.513,1.513,0,1,0,2.33-1.93l-9.75-11.82,6.89-1.13-1.45,7.02a.179.179,0,0,0,.12.21.17.17,0,0,0,.14,0,.2.2,0,0,0,.08-.08l4.75-8.4a.2.2,0,0,0,.01-.17.207.207,0,0,0-.13-.11Z"/><path class="a" d="M209.21,204.41a1.507,1.507,0,0,0-.75,2l4.48,9.86-6.42-4.59a.321.321,0,0,0-.34-.01.492.492,0,0,0-.21.04l-2.1.95a.5.5,0,0,0-.28.32.516.516,0,0,0,.06.42l7.46,11.39a.01.01,0,0,0,.01.01.282.282,0,0,0,.35.09c.01,0,.02-.01.03-.01a.29.29,0,0,0,.12-.37l-3.4-8.57,7.2,5.81a.3.3,0,0,0,.35,0h.01l2.18-.99a.319.319,0,0,0,.16-.42l-6.9-15.19A1.523,1.523,0,0,0,209.21,204.41Z"/><path class="a" d="M226.45,204.54a.343.343,0,0,0-.48,0l-6.5,5.51a.331.331,0,0,0-.07.47l.92,1.08a.332.332,0,0,0,.44.03l2.64-1.78.74,1.45-4.28,2.57-3.69-4.64,6.31-6.92a.2.2,0,0,0,.01-.25.185.185,0,0,0-.24-.04l-9.14,5.65a.2.2,0,0,0-.08.12.22.22,0,0,0,.02.14l.9,1.46v.01l3.74,6.14h0l1.23,2.05a.312.312,0,0,0,.43.11l6.17-3.7,2.08,4.06a1.509,1.509,0,1,0,2.69-1.37l-4.37-8.53,1.94-1.31a.349.349,0,0,0,.11-.5Z"/><rect class="a" width="15.32" height="2.8" transform="translate(208.552 177.631) rotate(13.986)"/><rect class="a" width="15.32" height="2.8" transform="translate(191.084 242.539) rotate(-166.014)"/><path class="a" d="M190.4,212.61l-2.79.42.55-2.69Z"/><path class="a" d="M193.62,233.68l.42-2.66,2.3,1.27Z"/><path class="a" d="M197.54,211.25l.44-2.83,2.45,1.35Z"/><path class="i" d="M196.37,235.51l-.94-3.46,2.43-1.01Z"/><rect class="i" width="15.32" height="2.8" transform="translate(191.958 243.615) rotate(-166.014)"/><rect class="i" width="15.32" height="2.8" transform="translate(207.681 176.561) rotate(13.986)"/><line class="i" x1="3.93" y2="10.67" transform="translate(198.49 206.38)"/><line class="i" x1="8.04" y2="21.85" transform="translate(200.4 194.16)"/><line class="i" x1="3.19" y2="8.68" transform="translate(190.42 219.12)"/><line class="i" x1="2.62" y2="7.12" transform="translate(192.58 218.93)"/><path class="i" d="M205.03,213.66l-1.32,5.56-4.17-.44Z"/><path class="i" d="M190.65,218.15l-2.09-2.27,2.06-1.82Z"/><path class="i" d="M195.21,209.62l3.24.7-.2,2.42Z"/><path class="i" d="M200.51,233.33l-4.54-3.24,1.93-3.61Z"/><path class="a" d="M212.55,200.94l-6.82-.9-3.35-4.64,5.9-5.89a.168.168,0,0,0,.02-.22.148.148,0,0,0-.21-.04l-8.36,4.64a.164.164,0,0,0-.06.23l.74,1.33v.01l3.81,6.98c.01.01.02.02.02.03a.138.138,0,0,0,.03.04l.02.02a.225.225,0,0,0,.14.06l7.78,1.02a1.346,1.346,0,1,0,.34-2.67Z"/><path class="a" d="M192.92,184.73a1.339,1.339,0,0,0-.67,1.78l7.07,15.57-5.71-4.09a.385.385,0,0,0-.32-.05l-2.04.93a.454.454,0,0,0-.25.29.408.408,0,0,0,.06.37l6.64,10.13a.01.01,0,0,0,.01.01.249.249,0,0,0,.31.08c.01,0,.02-.01.03-.01a.252.252,0,0,0,.11-.32l-3.03-7.63,6.4,5.17a.271.271,0,0,0,.31,0h.01l1.94-.88a.283.283,0,0,0,.14-.37l-9.22-20.31A1.35,1.35,0,0,0,192.92,184.73Z"/><path class="a" d="M217.54,190a.28.28,0,0,0-.36-.07l-4.81,2.81-.93-2.05,3.65-5.55a1.344,1.344,0,1,0-2.25-1.47l-4.34,6.61a.359.359,0,0,0-.07.1h0a.3.3,0,0,0,.01.21l3.86,8.5a.284.284,0,0,0,.28.16h.01l8.08,1.06a.277.277,0,0,0,.09-.01.176.176,0,0,0,.09-.1.169.169,0,0,0-.09-.2l-6.53-3.15-.8-1.76,4.82-3.71a.283.283,0,0,0,.05-.39Z"/><path class="a" d="M185.4,194.9h0a.142.142,0,0,0-.06-.02l-2.76.32a.136.136,0,0,0-.11.06.245.245,0,0,0-.04.12l1.27,11.29-10.73-4.08a1.346,1.346,0,0,0-1.07,2.47l9.71,3.65-3.27,8.05-10.11-14.54a.16.16,0,0,0-.22-.04.173.173,0,0,0-.06.22l9.45,18.11a.423.423,0,0,0,.27.22.441.441,0,0,0,.32-.02c.01,0,.02-.01.03-.01a16.838,16.838,0,0,0,1.99-1l4.05-9.84.68,6.05a.26.26,0,0,0,.26.23.3.3,0,0,0,.1-.02.277.277,0,0,0,.15-.23l.07-8.09,4.93-2.89,3.91,4.68a1.342,1.342,0,0,0,2.06-1.72Zm-.05,10.59.06-6.39,3.23,3.86Z"/></g></svg>