<svg xmlns="http://www.w3.org/2000/svg" width="372.559" height="373.201" viewBox="0 0 372.559 373.201"><defs><style>.a{fill:none;stroke:#e7f714;stroke-miterlimit:10;stroke-width:5.5px;}.a,.d{stroke-linecap:round;stroke-linejoin:round;}.b,.c,.d,.g{fill:#e7f714;}.e,.f,.g{stroke:none;}.f{fill:#707070;}</style></defs><g transform="translate(-103 -142.993)"><g transform="translate(204.644 265.213)"><path class="a" d="M19.86,44.633V8.419A7.669,7.669,0,0,1,27.529.75h0A7.669,7.669,0,0,1,35.2,8.419V44.633" transform="translate(2.802 -0.75)"/><path class="a" d="M10.31,48.113V11.9A7.669,7.669,0,0,1,17.979,4.23h0A7.669,7.669,0,0,1,25.649,11.9V48.113" transform="translate(-2.971 1.354)"/><path class="a" d="M29.42,48.113V11.9A7.428,7.428,0,0,1,36.8,4.23h0A7.669,7.669,0,0,1,44.47,11.9l.289,56.189" transform="translate(8.581 1.354)"/><path class="a" d="M41.869,54.094l5.9-21.115a7.668,7.668,0,0,1,9.242-5.68h0a7.668,7.668,0,0,1,5.68,9.242s-7,27.437-9.418,33.791C48.255,83.424,34.2,93.147,34.2,93.147v17.537" transform="translate(11.47 15.172)"/><path class="a" d="M16.089,43.831V18.849A7.376,7.376,0,0,0,8.772,11.18h0c-4.236,0-6.963,3.353-6.963,7.589,0,0-1.059,37.032-1.059,45.118,0,26.506,15.339,38.861,15.339,38.861v17.537" transform="translate(-8.75 5.555)"/><path class="a" d="M97.959,44.633V8.419A7.669,7.669,0,0,0,90.289.75h0A7.669,7.669,0,0,0,82.62,8.419V44.633" transform="translate(48.739 -0.75)"/><path class="a" d="M107.519,48.113V11.9A7.669,7.669,0,0,0,99.849,4.23h0A7.669,7.669,0,0,0,92.18,11.9V48.113" transform="translate(54.518 1.354)"/><path class="a" d="M88.4,48.113V11.9A7.428,7.428,0,0,0,81.018,4.23h0A7.669,7.669,0,0,0,73.349,11.9L73.06,68.089" transform="translate(42.96 1.354)"/><path class="a" d="M81,54.094l-5.9-21.115a7.668,7.668,0,0,0-9.242-5.68h0a7.668,7.668,0,0,0-5.68,9.242s7,27.437,9.418,33.791c5.006,13.093,19.061,22.816,19.061,22.816v17.537" transform="translate(35.041 15.172)"/><path class="a" d="M101.74,43.831V18.849a7.376,7.376,0,0,1,7.316-7.669h0c4.236,0,6.963,3.353,6.963,7.589,0,0,1.059,37.032,1.059,45.118,0,26.506-15.339,38.861-15.339,38.861v17.537" transform="translate(60.297 5.555)"/></g><g class="b" transform="translate(263.791 134.129)"><path class="e" d="M 51.66178894042969 43.39526748657227 L 2.120578050613403 43.39526748657227 C 1.798038125038147 43.39526748657227 1.508948087692261 43.2286376953125 1.347278118133545 42.94954681396484 C 1.190413594245911 42.67874526977539 1.185063242912292 42.35658645629883 1.33146595954895 42.08209609985352 L 25.77649879455566 9.866507530212402 L 25.79592895507812 9.840897560119629 L 25.81191825866699 9.813017845153809 C 25.97318840026855 9.531837463378906 26.26298904418945 9.363967895507812 26.58713722229004 9.363967895507812 C 26.91127777099609 9.363967895507812 27.20107841491699 9.531837463378906 27.36234855651855 9.813017845153809 L 27.37981796264648 9.843487739562988 L 27.4013786315918 9.871207237243652 L 52.45214080810547 42.08445358276367 C 52.59724426269531 42.35842132568359 52.59148788452148 42.67952728271484 52.43507766723633 42.94954681396484 C 52.27340698242188 43.2286491394043 51.98432922363281 43.39526748657227 51.66178894042969 43.39526748657227 Z"/><path class="f" d="M 26.58712768554688 9.863956451416016 C 26.50196838378906 9.863956451416016 26.34435844421387 9.889656066894531 26.24564743041992 10.0617790222168 L 26.21366882324219 10.11753845214844 L 26.17480850219727 10.16873931884766 L 1.758155822753906 42.346923828125 C 1.689952850341797 42.50059509277344 1.740901947021484 42.63153457641602 1.779926300048828 42.69891738891602 C 1.822406768798828 42.77224731445312 1.923149108886719 42.89526748657227 2.120578765869141 42.89526748657227 L 51.66178894042969 42.89526748657227 C 51.85920715332031 42.89526748657227 51.9599494934082 42.77224731445312 52.0024299621582 42.69892883300781 C 52.04112243652344 42.63211822509766 52.09154510498047 42.50284576416016 52.02592086791992 42.35086059570312 L 27.00667762756348 10.17814636230469 L 26.96355819702148 10.12269592285156 L 26.92861747741699 10.0617790222168 C 26.82990837097168 9.889656066894531 26.67228889465332 9.863956451416016 26.58712768554688 9.863956451416016 M 26.58713340759277 8.863964080810547 C 27.05772590637207 8.863964080810547 27.52831840515137 9.097396850585938 27.79607772827148 9.564266204833984 L 52.8707275390625 41.8082275390625 C 53.40359878540039 42.73733520507812 52.73284912109375 43.89526748657227 51.66178894042969 43.89526748657227 L 2.120578765869141 43.89526748657227 C 1.049507141113281 43.89526748657227 0.3787574768066406 42.73733520507812 0.9116287231445312 41.8082275390625 L 25.37818717956543 9.564266204833984 C 25.64594841003418 9.097396850585938 26.11654090881348 8.863964080810547 26.58713340759277 8.863964080810547 Z"/></g><path class="c" d="M24.653.7a1.394,1.394,0,0,1,2.418,0L52.146,32.944a1.394,1.394,0,0,1-1.209,2.087H1.4A1.394,1.394,0,0,1,.187,32.944Z" transform="translate(316.848 516.194) rotate(180)"/><path class="c" d="M24.653.7a1.394,1.394,0,0,1,2.418,0L52.146,32.944a1.394,1.394,0,0,1-1.209,2.087H1.4A1.394,1.394,0,0,1,.187,32.944Z" transform="translate(475.559 305.151) rotate(90)"/><path class="c" d="M24.653.7a1.394,1.394,0,0,1,2.418,0L52.146,32.944a1.394,1.394,0,0,1-1.209,2.087H1.4A1.394,1.394,0,0,1,.187,32.944Z" transform="translate(103 357.483) rotate(-90)"/><g class="d" transform="translate(279.279 171.502)"><path class="e" d="M 18.6037540435791 79.57711029052734 L 3.395345687866211 79.57711029052734 L -1.154537439346313 2.000002145767212 L 22.75869560241699 2.000002145767212 L 18.6037540435791 79.57711029052734 Z"/><path class="g" d="M 0.9662132263183594 4 L 5.281499862670898 77.57711029052734 L 16.7080135345459 77.57711029052734 L 20.64871406555176 4 L 0.9662132263183594 4 M -3.275264739990234 0 L 24.86867904663086 0 L 20.49950790405273 81.57711029052734 L 1.509222030639648 81.57711029052734 L -3.275264739990234 0 Z"/></g><g class="d" transform="translate(305.36 487.685) rotate(180)"><path class="e" d="M 21.8790225982666 79.57711029052734 L 6.670614242553711 79.57711029052734 L 2.120731115341187 2.000002145767212 L 26.03396415710449 2.000002145767212 L 21.8790225982666 79.57711029052734 Z"/><path class="g" d="M 4.241481781005859 4 L 8.556768417358398 77.57711029052734 L 19.9832820892334 77.57711029052734 L 23.92398262023926 4 L 4.241481781005859 4 M 3.814697265625e-06 0 L 28.14394760131836 0 L 23.77477645874023 81.57711029052734 L 4.784490585327148 81.57711029052734 L 3.814697265625e-06 0 Z"/></g><g class="d" transform="translate(447.05 316.639) rotate(90)"><path class="e" d="M 21.92805290222168 52.73947525024414 L 6.617301464080811 52.73947525024414 L 2.182430505752563 2.000005722045898 L 25.97796249389648 2.000005722045898 L 21.92805290222168 52.73947525024414 Z"/><path class="g" d="M 4.364873886108398 4.000003814697266 L 8.450115203857422 50.73946762084961 L 20.08132553100586 50.73946762084961 L 23.81196212768555 4.000003814697266 L 4.364873886108398 4.000003814697266 M 1.9073486328125e-06 3.814697265625e-06 L 28.14395713806152 3.814697265625e-06 L 23.7747802734375 54.73946762084961 L 4.784479141235352 54.73946762084961 L 1.9073486328125e-06 3.814697265625e-06 Z"/></g><g class="d" transform="translate(131.509 345.996) rotate(-90)"><path class="e" d="M 21.93135643005371 51.53630065917969 L 6.61372184753418 51.53630065917969 L 2.186707973480225 2.000000238418579 L 25.97409057617188 2.000000238418579 L 21.93135643005371 51.53630065917969 Z"/><path class="g" d="M 4.373418807983398 3.999996185302734 L 8.442947387695312 49.53629302978516 L 20.08792877197266 49.53629302978516 L 23.80421257019043 3.999996185302734 L 4.373418807983398 3.999996185302734 M 1.9073486328125e-06 -3.814697265625e-06 L 28.14395713806152 -3.814697265625e-06 L 23.7747802734375 53.53629302978516 L 4.784479141235352 53.53629302978516 L 1.9073486328125e-06 -3.814697265625e-06 Z"/></g></g></svg>